<?xml version="1.0" encoding="UTF-8"?>
<svg version="1.1" xmlns="http://www.w3.org/2000/svg" width="360" height="360">
<path d="M0 0 C0.87720703 -0.020625 1.75441406 -0.04125 2.65820312 -0.0625 C8.93940132 -0.10008383 13.98681426 0.49425264 18.9296875 4.75 C21.9138503 8.70144316 23.26037347 11.57502283 23.50390625 16.48046875 C23.56674805 17.68413086 23.56674805 17.68413086 23.63085938 18.91210938 C23.67017578 19.74548828 23.70949219 20.57886719 23.75 21.4375 C23.79318359 22.28248047 23.83636719 23.12746094 23.88085938 23.99804688 C23.98681518 26.08184433 24.0876502 28.16590103 24.1875 30.25 C25.11369141 30.61351562 25.11369141 30.61351562 26.05859375 30.984375 C28.77404635 32.05898334 31.48209887 33.15033625 34.1875 34.25 C34.92871094 34.55035156 35.66992188 34.85070312 36.43359375 35.16015625 C48.39665725 40.23073913 60.5383283 47.38143688 69.1875 57.25 C69.1875 57.91 69.1875 58.57 69.1875 59.25 C69.8475 59.25 70.5075 59.25 71.1875 59.25 C86.60155888 75.49857799 93.7742206 98.3441693 95.1875 120.25 C96.239375 120.353125 97.29125 120.45625 98.375 120.5625 C103.49247808 121.48532392 105.94432271 122.93962394 109.5 126.6875 C112.18087152 132.34711766 112.36928744 138.46562449 110.4921875 144.4765625 C108.32561176 148.75509443 105.63839633 150.70581148 101.1875 152.25 C99.52134042 152.29110989 97.85347758 152.29792152 96.1875 152.25 C96.4040625 153.26707031 96.4040625 153.26707031 96.625 154.3046875 C99.83893026 170.4189767 99.83893026 170.4189767 96.4375 176.25 C91.53800057 179.26507657 86.88070166 179.56181079 81.1875 180.25 C79.2075 187.675 79.2075 187.675 77.1875 195.25 C78.8375 195.91 80.4875 196.57 82.1875 197.25 C85.35647513 198.76145507 88.36007115 200.24269532 90.625 203 C91.98439204 208.43756815 91.79569256 212.6801309 89.140625 217.57421875 C88.25746858 219.03957501 87.3559655 220.49401278 86.4375 221.9375 C85.9940625 222.67033203 85.550625 223.40316406 85.09375 224.15820312 C78.78127032 234.45311484 78.78127032 234.45311484 75.1875 236.25 C69.1512575 237.00453031 65.69450775 235.22897469 60.51953125 232.1484375 C58.22193626 230.97070524 58.22193626 230.97070524 56.02734375 232.03125 C55.11662109 232.63453125 55.11662109 232.63453125 54.1875 233.25 C52.85416667 233.91666667 51.52083333 234.58333333 50.1875 235.25 C50.1875 235.91 50.1875 236.57 50.1875 237.25 C49.1975 237.91 48.2075 238.57 47.1875 239.25 C47.331875 239.78367187 47.47625 240.31734375 47.625 240.8671875 C48.67615626 245.08641195 49.41177893 249.21408244 49.625 253.5625 C49.66496094 254.36300781 49.70492187 255.16351563 49.74609375 255.98828125 C48.87264634 259.52482704 47.26960603 260.31986924 44.1875 262.25 C40.60500326 263.87472759 36.9502858 265.23175948 33.25 266.5625 C32.27353516 266.93439453 31.29707031 267.30628906 30.29101562 267.68945312 C21.23237352 270.987413 21.23237352 270.987413 16.1875 269.25 C10.87270057 265.32717185 9.3559888 260.27358 7.1875 254.25 C2.2375 253.92 -2.7125 253.59 -7.8125 253.25 C-8.1425 254.9 -8.4725 256.55 -8.8125 258.25 C-10.29481729 262.82617953 -11.72039068 266.36107381 -15.5 269.4375 C-20.10750245 270.56764211 -23.41495292 269.6527169 -27.8125 268.25 C-28.46847168 268.05196777 -29.12444336 267.85393555 -29.80029297 267.64990234 C-32.06369407 266.95985944 -34.31333422 266.23504183 -36.5625 265.5 C-37.29573486 265.27256104 -38.02896973 265.04512207 -38.78442383 264.81079102 C-44.06444126 263.0009301 -46.76400385 260.97607095 -49.8125 256.25 C-50.15234375 253.9765625 -50.15234375 253.9765625 -49.75 251.875 C-49.6159375 251.11574219 -49.481875 250.35648438 -49.34375 249.57421875 C-49.1684375 248.80722656 -48.993125 248.04023438 -48.8125 247.25 C-48.6371875 246.47269531 -48.461875 245.69539062 -48.28125 244.89453125 C-47.82626953 243.00435505 -47.32404336 241.125659 -46.8125 239.25 C-47.3178125 238.91226563 -47.823125 238.57453125 -48.34375 238.2265625 C-49.31828125 237.55753906 -49.31828125 237.55753906 -50.3125 236.875 C-51.28703125 236.21371094 -51.28703125 236.21371094 -52.28125 235.5390625 C-53.03921875 234.90097656 -53.03921875 234.90097656 -53.8125 234.25 C-53.8125 233.59 -53.8125 232.93 -53.8125 232.25 C-56.45451399 231.23570957 -57.49463593 231.11422891 -60.14453125 232.24609375 C-60.96308594 232.72175781 -61.78164062 233.19742188 -62.625 233.6875 C-66.93017381 235.94439728 -69.87442457 237.19962989 -74.8125 236.25 C-80.20172299 232.50544452 -83.05435267 228.19835255 -86.1875 222.5 C-86.63738281 221.73945313 -87.08726563 220.97890625 -87.55078125 220.1953125 C-90.47303619 214.95479453 -91.95555888 210.27348332 -90.8125 204.25 C-87.63518238 199.91729416 -83.47906821 197.72053611 -78.8125 195.25 C-78.95512412 193.6872038 -79.10175511 192.12477304 -79.25 190.5625 C-79.33121094 189.69238281 -79.41242188 188.82226562 -79.49609375 187.92578125 C-79.8033822 185.32710729 -80.26412384 182.80755267 -80.8125 180.25 C-82.02486328 180.12044922 -82.02486328 180.12044922 -83.26171875 179.98828125 C-91.97247529 178.84295862 -91.97247529 178.84295862 -96 176 C-98.8207812 171.72019404 -98.98276647 168.42876787 -98.25390625 163.3828125 C-97.97181839 162.0445352 -97.67866614 160.70854661 -97.375 159.375 C-97.22740234 158.68664062 -97.07980469 157.99828125 -96.92773438 157.2890625 C-96.56567961 155.60725971 -96.19043884 153.92830466 -95.8125 152.25 C-96.89917969 152.13269531 -97.98585938 152.01539063 -99.10546875 151.89453125 C-104.02813166 151.03864149 -105.33927769 149.72322231 -108.8125 146.25 C-111.90600373 141.38274668 -111.41465761 135.80323127 -110.8125 130.25 C-108.67903622 125.74602092 -106.37315568 123.26517344 -101.8125 121.25 C-99.48383979 120.88544936 -97.15051141 120.54876113 -94.8125 120.25 C-94.74256836 119.67668945 -94.67263672 119.10337891 -94.60058594 118.51269531 C-92.01228001 97.7646353 -86.98168024 78.29406092 -72.8125 62.25 C-71.75095703 60.99316406 -71.75095703 60.99316406 -70.66796875 59.7109375 C-66.66380149 55.05023111 -66.66380149 55.05023111 -64.8125 53.25 C-64.1525 53.25 -63.4925 53.25 -62.8125 53.25 C-62.8125 52.59 -62.8125 51.93 -62.8125 51.25 C-60.38959915 49.38322404 -57.97004769 47.64427204 -55.4375 45.9375 C-54.70233154 45.43911621 -53.96716309 44.94073242 -53.2097168 44.42724609 C-43.90504292 38.2036781 -34.30626955 34.11525994 -23.8125 30.25 C-23.79832031 29.0434375 -23.78414063 27.836875 -23.76953125 26.59375 C-23.3556433 9.85835675 -23.3556433 9.85835675 -17.8125 4.25 C-12.70311261 -0.54972755 -6.62575799 0.03843804 0 0 Z M-39.8125 152.25 C-40.46930609 153.83807231 -41.12078552 155.42834833 -41.77001953 157.01953125 C-42.13338409 157.90487549 -42.49674866 158.79021973 -42.87112427 159.70239258 C-46.86642597 170.51471746 -44.90748125 182.08116593 -40.25 192.25 C-33.76589589 204.43510386 -24.90755549 211.53329583 -12 216.125 C0.06982076 219.34873591 11.76328351 217.53808928 22.4375 211.375 C33.41650434 204.37588473 40.41509504 196.16997124 43.77587891 183.30371094 C45.78271538 173.29095387 45.45266789 162.19444183 40.1875 153.25 C38.4792059 151.5417059 36.32745623 152.13028074 34.04963684 152.12557983 C32.94696724 152.13097275 32.94696724 152.13097275 31.82202148 152.13647461 C30.66600433 152.13625557 30.66600433 152.13625557 29.4866333 152.1360321 C26.92725861 152.1367314 24.3679558 152.14452455 21.80859375 152.15234375 C20.03882385 152.15420787 18.26905344 152.1556318 16.49928284 152.15663147 C11.83198634 152.16045712 7.16472077 152.1702878 2.49743652 152.18133545 C-2.26147035 152.19154856 -7.02038221 152.19612887 -11.77929688 152.20117188 C-21.12371153 152.21191003 -30.4681032 152.22898701 -39.8125 152.25 Z " fill="#FEDA53" transform="translate(179.8125,44.75)"/>
<path d="M0 0 C17.82 0 35.64 0 54 0 C54 5.32037806 53.82462769 6.56778871 52 11 C49.76983833 25.72985814 52.20239512 37.28701098 60.78515625 49.55078125 C67.5933525 57.86880336 77.41141155 63.18221658 88 65 C102.88116386 66.235806 112.66083201 62.36761454 124.75 54.125 C132.91142708 46.41698554 137.7437553 36.53606183 138.37890625 25.26953125 C138.60717681 15.9084787 138.60717681 15.9084787 136 7 C135.875 3.6875 135.875 3.6875 136 1 C138.50549445 -0.25274723 140.19735632 -0.12029624 143.00048828 -0.11352539 C144.56188034 -0.11341209 144.56188034 -0.11341209 146.15481567 -0.11329651 C147.28192963 -0.10813522 148.40904358 -0.10297394 149.5703125 -0.09765625 C150.72167694 -0.0962413 151.87304138 -0.09482635 153.05929565 -0.09336853 C156.74788986 -0.08775716 160.43642405 -0.0752027 164.125 -0.0625 C166.62109288 -0.05748647 169.1171867 -0.05292331 171.61328125 -0.04882812 C177.74220809 -0.03778403 183.87109976 -0.0210348 190 0 C190.49474685 1.88537132 190.98306917 3.77242915 191.46875 5.66015625 C191.87770508 7.23615601 191.87770508 7.23615601 192.29492188 8.84399414 C193.60028408 14.68693638 194.33788389 19.70648476 191.25 25 C186.35050057 28.01507657 181.69320166 28.31181079 176 29 C174.68 33.95 173.36 38.9 172 44 C173.65 44.66 175.3 45.32 177 46 C180.16897513 47.51145507 183.17257115 48.99269532 185.4375 51.75 C186.79689204 57.18756815 186.60819256 61.4301309 183.953125 66.32421875 C183.06996858 67.78957501 182.1684655 69.24401278 181.25 70.6875 C180.8065625 71.42033203 180.363125 72.15316406 179.90625 72.90820312 C173.59377032 83.20311484 173.59377032 83.20311484 170 85 C163.9637575 85.75453031 160.50700775 83.97897469 155.33203125 80.8984375 C153.03443626 79.72070524 153.03443626 79.72070524 150.83984375 80.78125 C149.92912109 81.38453125 149.92912109 81.38453125 149 82 C147.66666667 82.66666667 146.33333333 83.33333333 145 84 C145 84.66 145 85.32 145 86 C144.01 86.66 143.02 87.32 142 88 C142.2165625 88.80050781 142.2165625 88.80050781 142.4375 89.6171875 C143.48865626 93.83641195 144.22427893 97.96408244 144.4375 102.3125 C144.47746094 103.11300781 144.51742187 103.91351563 144.55859375 104.73828125 C143.68514634 108.27482704 142.08210603 109.06986924 139 111 C135.41750326 112.62472759 131.7627858 113.98175948 128.0625 115.3125 C127.08603516 115.68439453 126.10957031 116.05628906 125.10351562 116.43945312 C116.04487352 119.737413 116.04487352 119.737413 111 118 C105.68520057 114.07717185 104.1684888 109.02358 102 103 C97.05 102.67 92.1 102.34 87 102 C86.67 103.65 86.34 105.3 86 107 C84.51768271 111.57617953 83.09210932 115.11107381 79.3125 118.1875 C74.70499755 119.31764211 71.39754708 118.4027169 67 117 C66.01604248 116.70295166 66.01604248 116.70295166 65.01220703 116.39990234 C62.74880593 115.70985944 60.49916578 114.98504183 58.25 114.25 C57.51676514 114.02256104 56.78353027 113.79512207 56.02807617 113.56079102 C50.74805874 111.7509301 48.04849615 109.72607095 45 105 C44.66015625 102.7265625 44.66015625 102.7265625 45.0625 100.625 C45.26359375 99.48611328 45.26359375 99.48611328 45.46875 98.32421875 C45.6440625 97.55722656 45.819375 96.79023438 46 96 C46.1753125 95.22269531 46.350625 94.44539063 46.53125 93.64453125 C46.98623047 91.75435505 47.48845664 89.875659 48 88 C47.4946875 87.66226563 46.989375 87.32453125 46.46875 86.9765625 C45.49421875 86.30753906 45.49421875 86.30753906 44.5 85.625 C43.52546875 84.96371094 43.52546875 84.96371094 42.53125 84.2890625 C42.0259375 83.86367188 41.520625 83.43828125 41 83 C41 82.34 41 81.68 41 81 C38.35798601 79.98570957 37.31786407 79.86422891 34.66796875 80.99609375 C33.84941406 81.47175781 33.03085938 81.94742188 32.1875 82.4375 C27.88232619 84.69439728 24.93807543 85.94962989 20 85 C14.61077701 81.25544452 11.75814733 76.94835255 8.625 71.25 C7.95017578 70.10917969 7.95017578 70.10917969 7.26171875 68.9453125 C4.33946381 63.70479453 2.85694112 59.02348332 4 53 C7.17731762 48.66729416 11.33343179 46.47053611 16 44 C15.85737588 42.4372038 15.71074489 40.87477304 15.5625 39.3125 C15.48128906 38.44238281 15.40007812 37.57226562 15.31640625 36.67578125 C15.0091178 34.07710729 14.54837616 31.55755267 14 29 C13.19175781 28.91363281 12.38351563 28.82726562 11.55078125 28.73828125 C2.84002471 27.59295862 2.84002471 27.59295862 -1.1875 24.75 C-4.3769374 19.9108536 -4.17659123 15.43952767 -3.1875 9.875 C-3.01605469 8.86179688 -2.84460938 7.84859375 -2.66796875 6.8046875 C-2 4 -2 4 0 0 Z " fill="#232C4D" transform="translate(85,196)"/>
<path d="M0 0 C2.475 0.495 2.475 0.495 5 1 C5 17.17 5 33.34 5 50 C34.04 50 63.08 50 93 50 C93 33.83 93 17.66 93 1 C94.65 0.67 96.3 0.34 98 0 C99 1 99 1 99.12025452 2.98048401 C99.11803391 3.84874313 99.11581329 4.71700226 99.11352539 5.61157227 C99.11344986 6.59251358 99.11337433 7.5734549 99.11329651 8.5841217 C99.10813522 9.6507756 99.10297394 10.7174295 99.09765625 11.81640625 C99.09553383 13.44569313 99.09553383 13.44569313 99.09336853 15.1078949 C99.08775048 18.59279075 99.07519492 22.07762342 99.0625 25.5625 C99.05748733 27.91861887 99.05292402 30.27473874 99.04882812 32.63085938 C99.03777519 38.42059464 99.02101951 44.21029281 99 50 C100.12767036 49.99316444 100.12767036 49.99316444 101.27812195 49.9861908 C113.44188725 49.91581332 125.59313826 49.90723741 137.75 50.375 C138.69431885 50.40585693 139.6386377 50.43671387 140.61157227 50.46850586 C145.35480262 50.67593324 149.63659945 50.93679463 154 53 C155.375 56.125 155.375 56.125 156 59 C156.99 59 157.98 59 159 59 C159.78358209 71.8681592 159.78358209 71.8681592 156.75 76.25 C155.8425 76.8275 154.935 77.405 154 78 C153.34 78.433125 152.68 78.86625 152 79.3125 C149.58027761 80.14427957 147.5406839 80.14114911 145 80 C144.67 80.99 144.34 81.98 144 83 C144 81.68 144 80.36 144 79 C126.18 79.33 108.36 79.66 90 80 C89.67 80.99 89.34 81.98 89 83 C88.67 82.34 88.34 81.68 88 81 C48.895 80.505 48.895 80.505 9 80 C8.67 80.66 8.34 81.32 8 82 C8 81.01 8 80.02 8 79 C-9.82 79 -27.64 79 -46 79 C-46.495 79.99 -46.495 79.99 -47 81 C-53.6055504 79.35940578 -57.1352157 77.67640194 -61 72 C-63.09450652 67.81098696 -62.41688038 62.56186244 -62 58 C-60.4375 54.375 -60.4375 54.375 -58 52 C-51.84151643 49.60854547 -45.92111957 49.74083064 -39.37890625 49.8046875 C-37.72905983 49.80893234 -37.72905983 49.80893234 -36.04588318 49.81326294 C-32.55130897 49.8244102 -29.05699606 49.84950502 -25.5625 49.875 C-23.18555059 49.88503684 -20.80859714 49.89416146 -18.43164062 49.90234375 C-12.6210054 49.92433169 -6.81052138 49.9577549 -1 50 C-1.00222061 49.38834488 -1.00444122 48.77668976 -1.00672913 48.14649963 C-1.02878122 41.80429669 -1.04390627 35.46210456 -1.05493164 29.11987305 C-1.05997341 26.75007688 -1.06680665 24.38028385 -1.07543945 22.01049805 C-1.0875119 18.61245961 -1.09322971 15.21446215 -1.09765625 11.81640625 C-1.10281754 10.74975235 -1.10797882 9.68309845 -1.11329651 8.5841217 C-1.11337204 7.60318039 -1.11344757 6.62223907 -1.11352539 5.61157227 C-1.115746 4.74331314 -1.11796661 3.87505402 -1.12025452 2.98048401 C-1 1 -1 1 0 0 Z " fill="#F2BB20" transform="translate(131,117)"/>
<path d="M0 0 C0.33 0 0.66 0 1 0 C1.7826087 8.95652174 1.7826087 8.95652174 -1.25 13 C-5.44009108 16.04733897 -7.74918213 17.2917121 -13 17 C-13.33 17.99 -13.66 18.98 -14 20 C-14 18.68 -14 17.36 -14 16 C-31.82 16.33 -49.64 16.66 -68 17 C-68.33 17.99 -68.66 18.98 -69 20 C-69.33 19.34 -69.66 18.68 -70 18 C-109.105 17.505 -109.105 17.505 -149 17 C-149.33 17.66 -149.66 18.32 -150 19 C-150 18.01 -150 17.02 -150 16 C-150.65875122 16.00666183 -151.31750244 16.01332367 -151.99621582 16.02018738 C-158.87470604 16.08674266 -165.75310421 16.13188443 -172.63183594 16.16479492 C-175.19632688 16.17984779 -177.76079223 16.20029461 -180.32519531 16.22631836 C-184.01894463 16.26285467 -187.71235246 16.27976194 -191.40625 16.29296875 C-192.5461438 16.30845261 -193.6860376 16.32393646 -194.86047363 16.33988953 C-201.27809527 16.34123535 -206.216467 15.88536123 -212 13 C-213.5 10.3125 -213.5 10.3125 -214 8 C-213.34635121 8.16251975 -212.69270243 8.3250395 -212.0192461 8.49248409 C-208.2317479 9.12913825 -204.51959338 9.13463478 -200.69206238 9.12025452 C-199.85882912 9.12110894 -199.02559587 9.12196337 -198.16711313 9.12284368 C-195.37725597 9.12448979 -192.58745904 9.11899132 -189.79760742 9.11352539 C-187.79689536 9.11324331 -185.79618319 9.11340167 -183.79547119 9.1139679 C-178.36411325 9.11425504 -172.93277736 9.10837169 -167.50142455 9.10139394 C-161.8252764 9.0951466 -156.14912775 9.09455551 -150.47297668 9.09336853 C-139.72439224 9.09025929 -128.97581796 9.08205138 -118.227238 9.07201904 C-105.99035502 9.06084527 -93.75347156 9.05534426 -81.51658475 9.05032361 C-56.3443842 9.03986844 -31.17219267 9.02227686 -6 9 C-6 8.34 -6 7.68 -6 7 C-5.38125 6.773125 -4.7625 6.54625 -4.125 6.3125 C-1.38589791 4.62070165 -0.94975528 3.00755839 0 0 Z " fill="#CA9F22" transform="translate(289,180)"/>
<path d="M0 0 C1.20462891 -0.01836914 1.20462891 -0.01836914 2.43359375 -0.03710938 C6.72579838 -0.04771614 10.28713682 0.01498179 14.125 2.1875 C14.9375 4.3125 14.9375 4.3125 15.125 6.1875 C15.785 6.1875 16.445 6.1875 17.125 6.1875 C17.125 6.8475 17.125 7.5075 17.125 8.1875 C17.785 8.1875 18.445 8.1875 19.125 8.1875 C20.30200048 12.81209244 20.23908412 17.26616462 20.1875 22 C20.18298828 22.78826172 20.17847656 23.57652344 20.17382812 24.38867188 C20.16211312 26.32164761 20.14417998 28.25458393 20.125 30.1875 C20.785 30.1875 21.445 30.1875 22.125 30.1875 C22.125 40.7475 22.125 51.3075 22.125 62.1875 C19.65 62.6825 19.65 62.6825 17.125 63.1875 C15.50454015 61.56704015 15.97570601 59.77122684 15.95141602 57.53173828 C15.93792618 56.54045929 15.92443634 55.5491803 15.91053772 54.52786255 C15.90009933 53.44874603 15.88966095 52.36962952 15.87890625 51.2578125 C15.84596894 48.99608986 15.81275728 46.73437121 15.77929688 44.47265625 C15.73183755 40.88886252 15.68741884 37.30508508 15.64819336 33.72119141 C15.60856162 30.27489087 15.55699335 26.82892828 15.50390625 23.3828125 C15.4954921 22.30774445 15.48707794 21.23267639 15.47840881 20.12503052 C15.45344582 18.62865555 15.45344582 18.62865555 15.42797852 17.10205078 C15.41767105 16.22348419 15.40736359 15.3449176 15.39674377 14.43972778 C15.26274576 11.90549465 15.26274576 11.90549465 13.125 9.1875 C8.8407539 6.4938191 4.60202029 6.7835335 -0.3125 6.75 C-1.15876953 6.71712891 -2.00503906 6.68425781 -2.87695312 6.65039062 C-3.70001953 6.64330078 -4.52308594 6.63621094 -5.37109375 6.62890625 C-6.11544678 6.61545166 -6.8597998 6.60199707 -7.62670898 6.58813477 C-11.36008017 7.58340312 -12.63964 9.03230831 -14.875 12.1875 C-15.61293233 16.05501136 -15.57243025 19.86901104 -15.546875 23.796875 C-15.55962463 24.91942688 -15.57237427 26.04197876 -15.58551025 27.19854736 C-15.62181814 30.77845553 -15.62451952 34.3574238 -15.625 37.9375 C-15.64657844 41.53150826 -15.67497563 45.12537287 -15.70733643 48.71929932 C-15.72516833 50.95504995 -15.73538982 53.19087602 -15.73748779 55.42669678 C-15.74129456 56.43154114 -15.74510132 57.4363855 -15.74902344 58.47167969 C-15.74948669 59.36038757 -15.74994995 60.24909546 -15.75042725 61.16473389 C-15.875 63.1875 -15.875 63.1875 -16.875 64.1875 C-18.54117115 64.22813832 -20.20888095 64.230221 -21.875 64.1875 C-21.97676424 57.0709256 -22.04661829 49.9545402 -22.09472656 42.83740234 C-22.11479065 40.4183857 -22.14204843 37.99941724 -22.17675781 35.58056641 C-22.22550341 32.09525632 -22.24802164 28.61058984 -22.265625 25.125 C-22.28627014 24.05072754 -22.30691528 22.97645508 -22.32818604 21.86962891 C-22.33006611 15.51948312 -21.73546149 10.40544848 -17.875 5.1875 C-11.89772208 0.43007472 -7.2978816 0.00580118 0 0 Z " fill="#F1BD27" transform="translate(179.875,45.8125)"/>
<path d="M0 0 C0.33 0 0.66 0 1 0 C1.7826087 8.95652174 1.7826087 8.95652174 -1.25 13 C-5.44009108 16.04733897 -7.74918213 17.2917121 -13 17 C-13.33 17.99 -13.66 18.98 -14 20 C-14 18.68 -14 17.36 -14 16 C-31.82 16.33 -49.64 16.66 -68 17 C-68.495 18.485 -68.495 18.485 -69 20 C-69.495 19.01 -69.495 19.01 -70 18 C-96.07 17.67 -122.14 17.34 -149 17 C-149 16.67 -149 16.34 -149 16 C-109.895 15.505 -109.895 15.505 -70 15 C-70 13.68 -70 12.36 -70 11 C-48.88 10.67 -27.76 10.34 -6 10 C-6 9.01 -6 8.02 -6 7 C-5.38125 6.773125 -4.7625 6.54625 -4.125 6.3125 C-1.38589791 4.62070165 -0.94975528 3.00755839 0 0 Z " fill="#C79E27" transform="translate(289,180)"/>
<path d="M0 0 C2.475 0.495 2.475 0.495 5 1 C5 1.66 5 2.32 5 3 C24.8 3 44.6 3 65 3 C65 4.32 65 5.64 65 7 C88.43 7 111.86 7 136 7 C136 7.33 136 7.66 136 8 C112.57 8 89.14 8 65 8 C64.67 8.99 64.34 9.98 64 11 C64 10.01 64 9.02 64 8 C63.34124878 8.00666183 62.68249756 8.01332367 62.00378418 8.02018738 C55.12529396 8.08674266 48.24689579 8.13188443 41.36816406 8.16479492 C38.80367312 8.17984779 36.23920777 8.20029461 33.67480469 8.22631836 C29.98105537 8.26285467 26.28764754 8.27976194 22.59375 8.29296875 C21.4538562 8.30845261 20.3139624 8.32393646 19.13952637 8.33988953 C12.72190473 8.34123535 7.783533 7.88536123 2 5 C0.5 2.3125 0.5 2.3125 0 0 Z " fill="#C39E31" transform="translate(75,188)"/>
<path d="M0 0 C14.19 0 28.38 0 43 0 C42.67 1.65 42.34 3.3 42 5 C36.34000977 5.02467467 30.68005068 5.04284788 25.02001953 5.05493164 C23.09358169 5.05996787 21.16714769 5.06679712 19.24072266 5.07543945 C16.47557632 5.08753608 13.71048042 5.09323533 10.9453125 5.09765625 C9.6483696 5.10539818 9.6483696 5.10539818 8.32522583 5.11329651 C2.22774341 5.11387171 2.22774341 5.11387171 0 4 C0 2.68 0 1.36 0 0 Z " fill="#F1BC21" transform="translate(158,144)"/>
<path d="M0 0 C0.99 0.33 1.98 0.66 3 1 C3 5.95 3 10.9 3 16 C3.66 16 4.32 16 5 16 C5 26.56 5 37.12 5 48 C2.525 48.495 2.525 48.495 0 49 C0 32.83 0 16.66 0 0 Z " fill="#F1BC22" transform="translate(197,60)"/>
<path d="M0 0 C1.6874269 0.00015917 3.37485866 0.00585622 5.06225586 0.01586914 C6.39189613 0.01799156 6.39189613 0.01799156 7.74839783 0.02015686 C10.59133215 0.02577324 13.43418892 0.03832848 16.27709961 0.05102539 C18.19962452 0.05603828 20.12215065 0.06060155 22.04467773 0.06469727 C26.7680151 0.07574798 31.49129419 0.09302356 36.21459961 0.11352539 C36.70959961 2.58852539 36.70959961 2.58852539 37.21459961 5.11352539 C23.68459961 5.11352539 10.15459961 5.11352539 -3.78540039 5.11352539 C-4.11540039 3.79352539 -4.44540039 2.47352539 -4.78540039 1.11352539 C-3.78540039 0.11352539 -3.78540039 0.11352539 0 0 Z " fill="#F2BB21" transform="translate(163.785400390625,124.886474609375)"/>
<path d="M0 0 C4.73552433 3.26412927 7.19411478 6.9890679 10 11.875 C10.43642822 12.62950439 10.87285645 13.38400879 11.32250977 14.16137695 C19.10003325 27.96789827 22.94556696 43.21986422 24 59 C25.7015625 59.185625 25.7015625 59.185625 27.4375 59.375 C28.613125 59.58125 29.78875 59.7875 31 60 C31.33 60.66 31.66 61.32 32 62 C30.18706911 61.85962479 28.3746557 61.71255111 26.5625 61.5625 C25.55316406 61.48128906 24.54382813 61.40007812 23.50390625 61.31640625 C21 61 21 61 20 60 C19.81226403 57.85742602 19.67578534 55.71029759 19.5625 53.5625 C19.4048936 43.00236589 19.4048936 43.00236589 15 34 C14.59190296 32.05587105 14.26947597 30.093137 14 28.125 C13.30317117 22.78369454 13.30317117 22.78369454 11 18 C10.01 17.67 9.02 17.34 8 17 C7.690625 15.865625 7.38125 14.73125 7.0625 13.5625 C6.42196553 9.94483499 6.42196553 9.94483499 4 8.8125 C3.34 8.544375 2.68 8.27625 2 8 C0.00474006 5.00711009 0 3.76914404 0 0 Z " fill="#F8E9A0" transform="translate(251,106)"/>
<path d="M0 0 C1.20027832 0.00128403 1.20027832 0.00128403 2.42480469 0.00259399 C12.13739487 0.01377512 21.84994593 0.03352495 31.5625 0.0625 C29.5625 2.0625 29.5625 2.0625 26.9375 2.1875 C26.15375 2.14625 25.37 2.105 24.5625 2.0625 C24.2325 3.0525 23.9025 4.0425 23.5625 5.0625 C23.5625 3.7425 23.5625 2.4225 23.5625 1.0625 C5.7425 1.3925 -12.0775 1.7225 -30.4375 2.0625 C-30.7675 3.0525 -31.0975 4.0425 -31.4375 5.0625 C-31.9325 4.0725 -31.9325 4.0725 -32.4375 3.0625 C-58.5075 2.7325 -84.5775 2.4025 -111.4375 2.0625 C-111.4375 1.7325 -111.4375 1.4025 -111.4375 1.0625 C-101.10433056 0.8850698 -90.77099982 0.7194349 -80.4375 0.5625 C-79.6558485 0.55062275 -78.87419701 0.5387455 -78.0688591 0.52650833 C-52.04517615 0.13453236 -26.02654888 -0.02804585 0 0 Z " fill="#DAC792" transform="translate(251.4375,194.9375)"/>
<path d="M0 0 C0.66 0.33 1.32 0.66 2 1 C1.34 2.32 0.68 3.64 0 5 C-0.66 5 -1.32 5 -2 5 C-2.58214143 11.92101483 -2.30417773 17.25405308 1.421875 23.25 C3.99087816 26.09879559 6.26015067 26.48668735 10 27 C9.67 27.99 9.34 28.98 9 30 C2.3944496 28.35940578 -1.1352157 26.67640194 -5 21 C-7.08851148 16.82297704 -6.44475888 11.54840084 -6 7 C-4.73794781 3.80000986 -3.14962054 1.57481027 0 0 Z " fill="#C7AB57" transform="translate(75,168)"/>
<path d="M0 0 C0.87720703 -0.020625 1.75441406 -0.04125 2.65820312 -0.0625 C9.04020414 -0.10068699 13.6497068 0.81014262 19 4.5 C22.69235359 9.94136319 22.4445287 16.38566873 22.3125 22.6875 C22.30347656 23.51443359 22.29445312 24.34136719 22.28515625 25.19335938 C22.26181512 27.21236708 22.22595288 29.23122356 22.1875 31.25 C21.5275 31.25 20.8675 31.25 20.1875 31.25 C19.8575 23.99 19.5275 16.73 19.1875 9.25 C18.5275 9.25 17.8675 9.25 17.1875 9.25 C17.1875 8.59 17.1875 7.93 17.1875 7.25 C16.5275 7.25 15.8675 7.25 15.1875 7.25 C14.6925 5.27 14.6925 5.27 14.1875 3.25 C9.5808628 2.11449624 5.0921727 1.99592906 0.375 1.9375 C-0.39392578 1.90849609 -1.16285156 1.87949219 -1.95507812 1.84960938 C-7.83970142 1.78505233 -11.78629595 3.27058424 -16.8125 6.25 C-17.8025 6.745 -17.8025 6.745 -18.8125 7.25 C-17.6608054 3.79491619 -16.82403326 3.14296376 -13.8125 1.25 C-9.27054688 -0.15414825 -4.71251137 0.02733872 0 0 Z " fill="#F1D884" transform="translate(179.8125,44.75)"/>
<path d="M0 0 C0.66 0.33 1.32 0.66 2 1 C1.67 1.99 1.34 2.98 1 4 C1.99 4.33 2.98 4.66 4 5 C3.01 5.99 2.02 6.98 1 8 C1 7.01 1 6.02 1 5 C0.01 5.495 0.01 5.495 -1 6 C-4.58266008 16.74798023 -3.14354806 30.12982536 -3.23117065 41.37585449 C-3.2437269 42.79232968 -3.26124692 44.20876954 -3.28372192 45.62512207 C-3.3135605 47.63533109 -3.32128092 49.64583119 -3.328125 51.65625 C-3.3374707 52.82994141 -3.34681641 54.00363281 -3.35644531 55.21289062 C-3.23881836 56.13263672 -3.12119141 57.05238281 -3 58 C-2.01 58.66 -1.02 59.32 0 60 C-1.65 60 -3.3 60 -5 60 C-5.10176424 52.8834256 -5.17161829 45.7670402 -5.21972656 38.64990234 C-5.23979065 36.2308857 -5.26704843 33.81191724 -5.30175781 31.39306641 C-5.35050341 27.90775632 -5.37302164 24.42308984 -5.390625 20.9375 C-5.41127014 19.86322754 -5.43191528 18.78895508 -5.45318604 17.68212891 C-5.45517069 10.97877123 -4.52455229 6.73520823 -1 1 C-0.67 0.67 -0.34 0.34 0 0 Z " fill="#F0C232" transform="translate(163,50)"/>
<path d="M0 0 C13.86 0 27.72 0 42 0 C42 0.33 42 0.66 42 1 C28.8 1.33 15.6 1.66 2 2 C2 2.99 2 3.98 2 5 C22.295 5.495 22.295 5.495 43 6 C43 6.33 43 6.66 43 7 C37.05518819 7.04934399 31.11049491 7.08569282 25.16552734 7.10986328 C23.14206873 7.11993671 21.11862472 7.13359595 19.09521484 7.15087891 C16.19104411 7.17506847 13.28706539 7.18646949 10.3828125 7.1953125 C9.02024826 7.21079636 9.02024826 7.21079636 7.63015747 7.22659302 C6.78943695 7.22674408 5.94871643 7.22689514 5.08251953 7.22705078 C3.96999313 7.23371262 3.96999313 7.23371262 2.83499146 7.24050903 C1 7 1 7 -1 5 C-0.67 3.35 -0.34 1.7 0 0 Z " fill="#F9CD3C" transform="translate(158,124)"/>
<path d="M0 0 C0.89847895 2.4473905 1.1810535 3.5734082 0.14453125 6.015625 C-0.29503906 6.75296875 -0.73460938 7.4903125 -1.1875 8.25 C-7.11964174 19.47163479 -8.63885683 32.53479411 -10 45 C-14.95 45.495 -14.95 45.495 -20 46 C-19.67 45.34 -19.34 44.68 -19 44 C-16.67843403 43.59270772 -14.3431213 43.25561323 -12 43 C-11.93006836 42.42668945 -11.86013672 41.85337891 -11.78808594 41.26269531 C-9.92099199 26.29592612 -7.2298209 13.39294691 0 0 Z " fill="#FBF2BA" transform="translate(97,122)"/>
<path d="M0 0 C3.85410207 -0.05847045 7.70808865 -0.09375405 11.5625 -0.125 C12.64853516 -0.14175781 13.73457031 -0.15851563 14.85351562 -0.17578125 C28.68069356 -0.25983704 28.68069356 -0.25983704 33.4375 4.375 C35.68094892 9.57980149 35.32546966 14.41277087 35 20 C34.67 20 34.34 20 34 20 C34 16.37 34 12.74 34 9 C33.01 9 32.02 9 31 9 C30.34 7.02 29.68 5.04 29 3 C23.0827441 1.78174143 17.14248484 1.66352622 11.125 1.4375 C10.05507813 1.39431641 8.98515625 1.35113281 7.8828125 1.30664062 C5.25532246 1.20107183 2.62774578 1.09896209 0 1 C0 0.67 0 0.34 0 0 Z " fill="#EFD16E" transform="translate(256,167)"/>
<path d="M0 0 C0.33 0 0.66 0 1 0 C1.76774904 8.7864612 1.76774904 8.7864612 -0.9375 13.0625 C-4.93009124 15.58842507 -8.34759195 15.88850438 -13 16 C-12.67 15.34 -12.34 14.68 -12 14 C-9.67843403 13.59270772 -7.3431213 13.25561323 -5 13 C-4.67 9.7 -4.34 6.4 -4 3 C-3.67 3.66 -3.34 4.32 -3 5 C-2.34 5 -1.68 5 -1 5 C-0.67 3.35 -0.34 1.7 0 0 Z " fill="#475068" transform="translate(277,208)"/>
<path d="M0 0 C0.33 0 0.66 0 1 0 C1.76681614 8.77578475 1.76681614 8.77578475 -0.11328125 11.77734375 C-1.5 13.125 -1.5 13.125 -4 15 C-4.66 14.67 -5.32 14.34 -6 14 C-6 11.69 -6 9.38 -6 7 C-5.071875 6.6596875 -5.071875 6.6596875 -4.125 6.3125 C-1.38589791 4.62070165 -0.94975528 3.00755839 0 0 Z " fill="#D1B255" transform="translate(289,180)"/>
<path d="M0 0 C0.66 0.33 1.32 0.66 2 1 C1.34 2.32 0.68 3.64 0 5 C-0.66 5 -1.32 5 -2 5 C-2.06058594 5.60328125 -2.12117188 6.2065625 -2.18359375 6.828125 C-2.30927734 8.02695313 -2.30927734 8.02695313 -2.4375 9.25 C-2.51871094 10.03890625 -2.59992188 10.8278125 -2.68359375 11.640625 C-3.12285645 14.91611479 -3.95525909 17.86577728 -5 21 C-7.08851148 16.82297704 -6.44475888 11.54840084 -6 7 C-4.73794781 3.80000986 -3.14962054 1.57481027 0 0 Z " fill="#F1DB8C" transform="translate(75,168)"/>
<path d="M0 0 C0.6875 1.75 0.6875 1.75 1 4 C0.00137794 5.33436568 -0.9988562 6.66752528 -2 8 C-2.70631292 9.7053563 -3.34925232 11.43790498 -3.9375 13.1875 C-5.70277123 18.25839495 -7.7401588 23.13172508 -10 28 C-10.98194025 25.40529728 -11.12902975 24.32012444 -10.07421875 21.703125 C-9.38779297 20.48882812 -9.38779297 20.48882812 -8.6875 19.25 C-6.98867974 16.07637973 -5.66988304 13.27628871 -4.9375 9.75 C-3.89792383 5.59169531 -2.53596641 3.38128854 0 0 Z " fill="#F3D96B" transform="translate(103,112)"/>
<path d="M0 0 C6.30702199 0.46114334 10.86803314 2.00483572 16.4375 4.9375 C17.15615234 5.29779297 17.87480469 5.65808594 18.61523438 6.02929688 C23.85901786 8.71803571 23.85901786 8.71803571 25 11 C21.59687262 9.94124926 18.98646769 8.99097846 16 7 C12.98611872 6.22851422 9.95717214 5.60333405 6.91015625 4.9765625 C3.66634608 3.8880356 2.19847327 2.57459761 0 0 Z " fill="#F9E9A0" transform="translate(205,77)"/>
<path d="M0 0 C4.26431676 1.43436109 7.19015553 3.55620484 10.625 6.4375 C11.56601563 7.21996094 12.50703125 8.00242187 13.4765625 8.80859375 C15.40384688 10.48228808 17.23599472 12.15904147 19 14 C18.67 14.66 18.34 15.32 18 16 C17.236875 15.195625 16.47375 14.39125 15.6875 13.5625 C13.20569102 10.83200976 13.20569102 10.83200976 10 10 C10 9.34 10 8.68 10 8 C9.443125 7.896875 8.88625 7.79375 8.3125 7.6875 C5.47757796 6.84468534 3.39049023 5.74441179 1 4 C0.1875 1.8125 0.1875 1.8125 0 0 Z " fill="#F9ECA6" transform="translate(230,88)"/>
<path d="M0 0 C0.66 0.33 1.32 0.66 2 1 C1.67 1.99 1.34 2.98 1 4 C1.99 4.33 2.98 4.66 4 5 C3.01 5.99 2.02 6.98 1 8 C1 7.01 1 6.02 1 5 C-1.66685285 6.33342642 -1.95622999 7.19877108 -3 10 C-3.2952194 12.77394833 -3.50712231 15.4700511 -3.625 18.25 C-3.66367188 18.99507812 -3.70234375 19.74015625 -3.7421875 20.5078125 C-3.83605108 22.3381524 -3.91909718 24.16904143 -4 26 C-4.33 26 -4.66 26 -5 26 C-5.74063963 7.89547582 -5.74063963 7.89547582 -1 1 C-0.67 0.67 -0.34 0.34 0 0 Z " fill="#EAC34D" transform="translate(163,50)"/>
<path d="M0 0 C0 0.66 0 1.32 0 2 C-0.33 2.33 -0.66 2.66 -1 3 C-1.23075082 4.34747084 -1.41153063 5.70377565 -1.5625 7.0625 C-1.706875 8.361875 -1.85125 9.66125 -2 11 C-2.99 11 -3.98 11 -5 11 C-5.66 11.99 -6.32 12.98 -7 14 C-7.7833257 6.01007787 -7.7833257 6.01007787 -4.625 1.9375 C-2 0 -2 0 0 0 Z " fill="#4B526A" transform="translate(96,244)"/>
<path d="M0 0 C0.33 0 0.66 0 1 0 C2.32528788 6.09632423 1.46619907 10.97767819 0 17 C0.99 16.67 1.98 16.34 3 16 C3 17.65 3 19.3 3 21 C2.01 20.67 1.02 20.34 0 20 C-2.7618265 13.02967596 -1.55715815 7.18688375 0 0 Z " fill="#6B7183" transform="translate(83,200)"/>
<path d="M0 0 C2.99531402 2.54601692 4.24004049 5.34468457 5.75 8.9375 C6.42289062 10.49791016 6.42289062 10.49791016 7.109375 12.08984375 C8.003224 15.01053455 8.10154037 16.21256554 7 19 C6.66226562 18.08476562 6.32453125 17.16953125 5.9765625 16.2265625 C5.30753906 14.44378906 5.30753906 14.44378906 4.625 12.625 C3.96371094 10.84996094 3.96371094 10.84996094 3.2890625 9.0390625 C2.2049658 5.95506554 2.2049658 5.95506554 0 4 C0 2.68 0 1.36 0 0 Z " fill="#FBF2BA" transform="translate(262,122)"/>
<path d="M0 0 C0 3 0 3 -1 6 C-1 7.32 -1 8.64 -1 10 C-1.99 10 -2.98 10 -4 10 C-4.33 9.34 -4.66 8.68 -5 8 C-5.99 8.99 -6.98 9.98 -8 11 C-8.66 10.67 -9.32 10.34 -10 10 C-9.0925 9.278125 -8.185 8.55625 -7.25 7.8125 C-4.4298006 5.47347206 -2.19093342 2.94933345 0 0 Z " fill="#656B81" transform="translate(216,243)"/>
<path d="M0 0 C4.67105792 1.55701931 8.08705685 4.08447373 12 7 C10 8 10 8 7.6171875 7.22265625 C6.71226562 6.83980469 5.80734375 6.45695313 4.875 6.0625 C3.96492187 5.68222656 3.05484375 5.30195313 2.1171875 4.91015625 C1.06917969 4.45962891 1.06917969 4.45962891 0 4 C0 2.68 0 1.36 0 0 Z " fill="#4B526A" transform="translate(145,248)"/>
<path d="M0 0 C2.31 0.66 4.62 1.32 7 2 C7 2.66 7 3.32 7 4 C8.65 4.33 10.3 4.66 12 5 C10.296875 6.1484375 10.296875 6.1484375 8 7 C5.640625 6.1015625 5.640625 6.1015625 3.25 4.625 C2.45078125 4.14289063 1.6515625 3.66078125 0.828125 3.1640625 C0.22484375 2.77992188 -0.3784375 2.39578125 -1 2 C-0.67 1.34 -0.34 0.68 0 0 Z " fill="#545A71" transform="translate(237,273)"/>
<path d="M0 0 C2.82357888 1.41178944 3.69392077 3.1816185 5 6 C4.67 6.66 4.34 7.32 4 8 C3.01 7.34 2.02 6.68 1 6 C1 5.34 1 4.68 1 4 C-1.97 3.505 -1.97 3.505 -5 3 C-2.6 0 -2.6 0 0 0 Z " fill="#636B7F" transform="translate(125,273)"/>
<path d="M0 0 C2.99759932 1.49879966 3.30788674 3.80308864 4.40234375 6.85546875 C5.17376071 9.6234943 5.21405269 12.1459642 5 15 C4.67 15 4.34 15 4 15 C3.33333333 13 2.66666667 11 2 9 C1.62875 7.948125 1.2575 6.89625 0.875 5.8125 C0 3 0 3 0 0 Z " fill="#F3DC77" transform="translate(265,132)"/>
<path d="M0 0 C0.66 0 1.32 0 2 0 C1.43850643 3.25666272 0.62770014 4.95623323 -2 7 C-4.1875 7.6875 -4.1875 7.6875 -6 8 C-4.95125002 5.37812506 -4.35068687 4.20628639 -1.875 2.75 C-1.25625 2.5025 -0.6375 2.255 0 2 C0 1.34 0 0.68 0 0 Z " fill="#F9ECA5" transform="translate(117,96)"/>
<path d="M0 0 C2.40201504 4.19879794 2.15864149 7.24075541 2 12 C0.48046875 10.79296875 0.48046875 10.79296875 -1 9 C-1.07421875 6.73828125 -1.07421875 6.73828125 -0.6875 4.3125 C-0.56761719 3.50425781 -0.44773438 2.69601562 -0.32421875 1.86328125 C-0.21722656 1.24839844 -0.11023438 0.63351562 0 0 Z " fill="#6B7081" transform="translate(131,292)"/>
<path d="M0 0 C2.86724686 0.57344937 3.8614515 0.8614515 6 3 C5.625 5.125 5.625 5.125 5 7 C4.34 6.67 3.68 6.34 3 6 C3 5.34 3 4.68 3 4 C2.34 4 1.68 4 1 4 C0.67 2.68 0.34 1.36 0 0 Z " fill="#EFD67F" transform="translate(194,48)"/>
<path d="M0 0 C3.63 0.66 7.26 1.32 11 2 C10.67 2.99 10.34 3.98 10 5 C8.51800098 4.55090939 7.03944764 4.09043436 5.5625 3.625 C4.73878906 3.36976563 3.91507812 3.11453125 3.06640625 2.8515625 C1 2 1 2 0 0 Z " fill="#D2C086" transform="translate(74,193)"/>
<path d="M0 0 C0.75 1.625 0.75 1.625 1 4 C-0.8125 7.25 -0.8125 7.25 -3 10 C-3.66 10 -4.32 10 -5 10 C-3.84414715 6.08788267 -2.64465038 3.1254959 0 0 Z " fill="#FAECAD" transform="translate(103,112)"/>
<path d="M0 0 C0.33 0 0.66 0 1 0 C1 3.3 1 6.6 1 10 C0.01 10.495 0.01 10.495 -1 11 C-1.66 10.34 -2.32 9.68 -3 9 C-2.625 6.875 -2.625 6.875 -2 5 C-1.67 5 -1.34 5 -1 5 C-0.67 3.35 -0.34 1.7 0 0 Z " fill="#5D6379" transform="translate(277,208)"/>
<path d="M0 0 C-0.33 1.98 -0.66 3.96 -1 6 C-1.99 6.33 -2.98 6.66 -4 7 C-4 5.02 -4 3.04 -4 1 C-2 0 -2 0 0 0 Z " fill="#1C2445" transform="translate(87,210)"/>
<path d="M0 0 C1.9375 0.625 1.9375 0.625 4 2 C4.75 5.125 4.75 5.125 5 8 C4.01 7.67 3.02 7.34 2 7 C0.8125 3.4375 0.8125 3.4375 0 0 Z " fill="#F6E286" transform="translate(257,116)"/>
<path d="M0 0 C2.475 0.99 2.475 0.99 5 2 C3.68 3.32 2.36 4.64 1 6 C1 5.34 1 4.68 1 4 C0.34 4 -0.32 4 -1 4 C-0.67 2.68 -0.34 1.36 0 0 Z " fill="#424B66" transform="translate(230,274)"/>
<path d="M0 0 C2.6855594 2.6855594 3.06049974 5.37621328 4 9 C2.68 8.67 1.36 8.34 0 8 C0 5.36 0 2.72 0 0 Z " fill="#646A7E" transform="translate(137,231)"/>
<path d="M0 0 C1.98 0.99 1.98 0.99 4 2 C4.33 1.34 4.66 0.68 5 0 C6.32 0.66 7.64 1.32 9 2 C8.67 2.66 8.34 3.32 8 4 C5.69 3.67 3.38 3.34 1 3 C0.67 2.01 0.34 1.02 0 0 Z " fill="#1A2441" transform="translate(85,218)"/>
<path d="M0 0 C0.99 0.33 1.98 0.66 3 1 C3.33 3.31 3.66 5.62 4 8 C2.68 8.33 1.36 8.66 0 9 C0.185625 7.88625 0.37125 6.7725 0.5625 5.625 C1.31680657 2.17431139 1.31680657 2.17431139 0 0 Z " fill="#696F84" transform="translate(132,282)"/>
<path d="M0 0 C0.66 0.33 1.32 0.66 2 1 C1.75 2.875 1.75 2.875 1 5 C-1.0625 6.25 -1.0625 6.25 -3 7 C-3.33 6.01 -3.66 5.02 -4 4 C-2.68 4 -1.36 4 0 4 C0 2.68 0 1.36 0 0 Z " fill="#53586F" transform="translate(258,273)"/>
<path d="M0 0 C0.66 0 1.32 0 2 0 C1.6875 3.375 1.6875 3.375 1 7 C0.01 7.66 -0.98 8.32 -2 9 C-1.34 6.03 -0.68 3.06 0 0 Z " fill="#5E6376" transform="translate(223,226)"/>
<path d="M0 0 C0.66 0.33 1.32 0.66 2 1 C-0.75 3.0625 -0.75 3.0625 -4 5 C-6.203125 4.62109375 -6.203125 4.62109375 -8 4 C-6.71349294 3.30289269 -5.42059335 2.61757124 -4.125 1.9375 C-3.40570313 1.55464844 -2.68640625 1.17179687 -1.9453125 0.77734375 C-1.30335938 0.52082031 -0.66140625 0.26429687 0 0 Z " fill="#FBEFB5" transform="translate(143,80)"/>
<path d="M0 0 C2.01136276 2.55991624 3.62845496 5.04590299 5 8 C4.01 8 3.02 8 2 8 C2 7.34 2 6.68 2 6 C1.34 6 0.68 6 0 6 C0 4.02 0 2.04 0 0 Z " fill="#CAA435" transform="translate(70,180)"/>
</svg>
