<?xml version="1.0" encoding="UTF-8"?>
<svg version="1.1" xmlns="http://www.w3.org/2000/svg" width="512" height="512">
<path d="M0 0 C1.21431702 -0.00700928 2.42863403 -0.01401855 3.67974854 -0.02124023 C6.9883916 -0.03575933 10.29602474 -0.03245158 13.60460973 -0.01972389 C17.08980765 -0.0095196 20.57496558 -0.01901148 24.06016541 -0.02526855 C29.91828036 -0.03253031 35.77619316 -0.0230033 41.63427734 -0.00390625 C48.36612208 0.01778861 55.09748069 0.01085947 61.82931334 -0.01121187 C67.64205271 -0.0294938 73.4546475 -0.03186031 79.2674064 -0.0214572 C82.72418454 -0.01528262 86.18073611 -0.01421531 89.63749886 -0.02760315 C114.51085653 -0.09368947 135.32681629 2.1034825 154.57397461 19.51757812 C155.33194336 20.18273437 156.08991211 20.84789062 156.87084961 21.53320312 C170.15307798 33.89941574 178.85404863 51.31766623 179.77641296 69.51049805 C179.8963696 74.36917088 179.90581782 79.22797234 179.90991211 84.08789062 C179.91635419 85.89614971 179.92308356 87.70440779 179.93008423 89.51266479 C179.94201263 93.29329845 179.9457698 97.07384106 179.94458008 100.85449219 C179.94437749 105.65525005 179.97163711 110.45541196 180.0061245 115.25602913 C180.02856876 118.98998597 180.03241226 122.72380356 180.03136063 126.45782089 C180.03369196 128.22533082 180.04237289 129.99284608 180.05802536 131.76028824 C180.22482051 152.54410958 175.8733336 171.59064982 161.57397461 187.51757812 C160.85725586 188.32710937 160.14053711 189.13664063 159.40209961 189.97070312 C146.62201349 203.58608899 129.42483298 212.76464959 110.58105469 213.72001648 C105.72238185 213.83997312 100.8635804 213.84942134 96.00366211 213.85351562 C94.19540303 213.85995771 92.38714495 213.86668707 90.57888794 213.87368774 C86.79825428 213.88561614 83.01771167 213.88937331 79.23706055 213.88818359 C74.43630269 213.88798101 69.63614077 213.91524062 64.83552361 213.94972801 C61.10156676 213.97217228 57.36774918 213.97601577 53.63373184 213.97496414 C51.86622192 213.97729548 50.09870665 213.98597641 48.3312645 214.00162888 C26.76742043 214.17468389 7.98105059 209.36207544 -8.42602539 194.51757812 C-9.18399414 193.85242188 -9.94196289 193.18726563 -10.72290039 192.50195312 C-23.68368243 180.43501813 -32.43089077 163.37012912 -33.62098503 145.60777283 C-33.70527687 142.36482387 -33.73052359 139.12686014 -33.73242188 135.8828125 C-33.74074539 134.6587117 -33.74906891 133.4346109 -33.75764465 132.17341614 C-33.77748876 128.8448602 -33.78836151 125.51655314 -33.7934711 122.18795967 C-33.79713496 120.10232102 -33.80338507 118.0167057 -33.81047249 115.93107605 C-33.83489275 108.63812217 -33.84800444 101.34523876 -33.8515625 94.05224609 C-33.85520044 87.27989965 -33.88513295 80.50800557 -33.92696708 73.73579741 C-33.96175782 67.89683106 -33.97711238 62.05801422 -33.97780854 56.21894503 C-33.97859784 52.74214238 -33.98717625 49.26580271 -34.0158062 45.78910828 C-34.04704371 41.91001127 -34.03788522 38.03155762 -34.02539062 34.15234375 C-34.04022491 33.01646317 -34.0550592 31.88058258 -34.07034302 30.71028137 C-33.98623721 21.51125697 -31.41772676 14.48072978 -25.17602539 7.64257812 C-17.68086724 0.80763289 -9.82622834 -0.07040596 0 0 Z " fill="#365078" transform="translate(304.426025390625,270.482421875)"/>
<path d="M0 0 C1.83307495 -0.00644127 3.66614891 -0.01317058 5.4992218 -0.02017212 C9.33112975 -0.03210051 13.16294786 -0.03585762 16.99487305 -0.03466797 C21.86522775 -0.03446523 26.73499605 -0.06174114 31.60521221 -0.09621239 C35.38974058 -0.11863342 39.17413132 -0.12250086 42.95871925 -0.12144852 C44.75217517 -0.12378268 46.54563619 -0.13248034 48.3390255 -0.14811325 C68.86945137 -0.3103081 87.46801793 4.21285119 103.17578125 18.3359375 C104.05878906 19.11453125 104.94179688 19.893125 105.8515625 20.6953125 C119.25938311 33.23153205 128.59501193 50.47896115 129.32295227 69.10079956 C129.33789237 70.52793089 129.34752191 71.95512439 129.3527832 73.38232422 C129.3593544 74.16704605 129.3659256 74.95176788 129.37269592 75.76026917 C129.39232643 78.345389 129.40407342 80.93045079 129.4140625 83.515625 C129.41813803 84.40585484 129.42221355 85.29608467 129.42641258 86.21329117 C129.44723757 90.93255629 129.46155032 95.65179271 129.47094727 100.37109375 C129.48195737 105.20331957 129.51630465 110.03507802 129.55611897 114.86713982 C129.58249723 118.61824288 129.59065809 122.36923857 129.59422874 126.12042618 C129.59904628 127.89911146 129.61051877 129.67779357 129.62926674 131.45638657 C129.84286477 153.07727698 125.06467743 171.87978909 110.17578125 188.3359375 C109.510625 189.09390625 108.84546875 189.851875 108.16015625 190.6328125 C96.20575536 203.47272457 78.99340189 212.31046903 61.35869026 213.53089714 C58.12267587 213.61577595 54.89167504 213.64044572 51.65454102 213.64233398 C49.81860886 213.65481926 49.81860886 213.65481926 47.94558716 213.66755676 C44.61283997 213.68742244 41.28034158 213.69827795 37.94755673 213.70338321 C35.85974583 213.7070443 33.77195832 213.71329311 31.68415642 213.7203846 C24.38472326 213.74481744 17.08536061 213.75791878 9.78588867 213.76147461 C3.00617864 213.76511098 -3.77307906 213.79502905 -10.55265087 213.83687919 C-16.3958433 213.87167123 -22.2388863 213.88702453 -28.08218151 213.88772064 C-31.56235231 213.88851006 -35.04206062 213.89709353 -38.52212334 213.92571831 C-42.40611881 213.95695777 -46.28947178 213.94779672 -50.17358398 213.93530273 C-51.87976143 213.95755417 -51.87976143 213.95755417 -53.6204071 213.98025513 C-62.82496155 213.89621249 -69.85662026 211.33148908 -76.69921875 205.0859375 C-83.53416398 197.59077935 -84.41220283 189.73614045 -84.34179688 179.90991211 C-84.35231079 178.08843658 -84.35231079 178.08843658 -84.36303711 176.23016357 C-84.3775562 172.92152051 -84.37424846 169.61388737 -84.36152077 166.30530238 C-84.35131648 162.82010446 -84.36080836 159.33494652 -84.36706543 155.8497467 C-84.37432718 149.99163175 -84.36480018 144.13371895 -84.34570312 138.27563477 C-84.32400827 131.54379003 -84.33093741 124.81243142 -84.35300875 118.08059877 C-84.37129068 112.2678594 -84.37365718 106.45526461 -84.36325407 100.64250571 C-84.3570795 97.18572757 -84.35601219 93.729176 -84.36940002 90.27241325 C-84.43548634 65.39905558 -82.23831437 44.58309582 -64.82421875 25.3359375 C-64.1590625 24.57796875 -63.49390625 23.82 -62.80859375 23.0390625 C-45.7125077 4.67659971 -24.10782484 0.0200196 0 0 Z " fill="#365078" transform="translate(354.82421875,27.6640625)"/>
<path d="M0 0 C1.8361512 -0.01248528 1.8361512 -0.01248528 3.70939636 -0.02522278 C7.0379523 -0.04506689 10.36625936 -0.05593964 13.69485283 -0.06104922 C15.78049148 -0.06471309 17.8661068 -0.07096319 19.95173645 -0.07805061 C27.24469033 -0.10247087 34.53757374 -0.11558256 41.83056641 -0.11914062 C48.60291285 -0.12277856 55.37480693 -0.15271108 62.14701509 -0.19454521 C67.98598144 -0.22933595 73.82479828 -0.24469051 79.66386747 -0.24538666 C83.14067012 -0.24617596 86.61700979 -0.25475437 90.09370422 -0.28338432 C93.97280123 -0.31462183 97.85125488 -0.30546335 101.73046875 -0.29296875 C103.43428963 -0.31522018 103.43428963 -0.31522018 105.17253113 -0.33792114 C114.37155553 -0.25381533 121.40208272 2.31469512 128.24023438 8.55639648 C135.07517961 16.05155464 135.95321846 23.90619354 135.8828125 33.73242188 C135.88982178 34.94673889 135.89683105 36.16105591 135.90405273 37.41217041 C135.91857183 40.72081347 135.91526408 44.02844661 135.90253639 47.3370316 C135.8923321 50.82222953 135.90182398 54.30738746 135.90808105 57.79258728 C135.91534281 63.65070224 135.9058158 69.50861503 135.88671875 75.36669922 C135.86502389 82.09854395 135.87195303 88.82990257 135.89402437 95.56173521 C135.9123063 101.37447458 135.91467281 107.18706938 135.9042697 112.99982828 C135.89809512 116.45660641 135.89702781 119.91315798 135.91041565 123.36992073 C135.97650197 148.24327841 133.77933 169.05923817 116.36523438 188.30639648 C115.70007813 189.06436523 115.03492188 189.82233398 114.34960938 190.60327148 C101.98339676 203.88549985 84.56514627 212.5864705 66.37231445 213.50883484 C61.51364162 213.62879148 56.65484016 213.6382397 51.79492188 213.64233398 C49.98666279 213.64877607 48.17840471 213.65550543 46.37014771 213.6625061 C42.58951405 213.6744345 38.80897144 213.67819167 35.02832031 213.67700195 C30.22756245 213.67679937 25.42740054 213.70405898 20.62678337 213.73854637 C16.89282653 213.76099064 13.15900894 213.76483413 9.42499161 213.7637825 C7.65748168 213.76611384 5.88996642 213.77479477 4.12252426 213.79044724 C-16.66129708 213.95724238 -35.70783732 209.60575547 -51.63476562 195.30639648 C-52.44429687 194.58967773 -53.25382812 193.87295898 -54.08789062 193.13452148 C-67.15972452 180.86464059 -77.23078373 163.4140491 -77.90219116 145.14280701 C-77.9198176 143.7045043 -77.92708389 142.26604631 -77.92529297 140.82763672 C-77.93201019 140.03272324 -77.93872742 139.23780975 -77.94564819 138.41880798 C-77.96448391 135.81746992 -77.96854569 133.21639206 -77.97070312 130.61499023 C-77.97714337 128.78288167 -77.98387261 126.9507741 -77.99087524 125.1186676 C-78.00281375 121.28497947 -78.00655984 117.45138118 -78.00537109 113.61767578 C-78.00516864 108.74851111 -78.03241019 103.87993489 -78.06691551 99.01090908 C-78.08935841 95.22633822 -78.09320329 91.44190478 -78.09215164 87.65727425 C-78.09448388 85.86464483 -78.10317012 84.07201021 -78.11881638 82.27944756 C-78.29006988 60.62460622 -73.55231673 41.79421613 -58.63476562 25.30639648 C-57.96960938 24.54842773 -57.30445312 23.79045898 -56.61914062 23.00952148 C-41.5872236 6.86412912 -21.69930922 0.01269759 0 0 Z " fill="#943F4B" transform="translate(105.634765625,270.693603515625)"/>
<path d="M0 0 C1.19149406 -0.0098568 1.19149406 -0.0098568 2.40705872 -0.01991272 C5.03008131 -0.03958096 7.65304654 -0.05129976 10.27612305 -0.0612793 C11.17830252 -0.06535482 12.08048199 -0.06943035 13.01000023 -0.07362938 C17.79409935 -0.09447207 22.57817003 -0.10877625 27.36230469 -0.11816406 C32.26293783 -0.12916765 37.16310929 -0.16350203 42.06358051 -0.20333576 C45.86529784 -0.2297123 49.6669092 -0.23787482 53.46870995 -0.24144554 C55.27251456 -0.24626488 57.07631598 -0.25774277 58.88002968 -0.27648354 C80.59197553 -0.48787982 99.4383964 4.21500374 115.9753418 19.17700195 C116.73331055 19.8421582 117.4912793 20.50731445 118.2722168 21.19262695 C131.11212886 33.14702784 139.94987332 50.35938132 141.17030144 67.99409294 C141.25518024 71.23010733 141.27985001 74.46110816 141.28173828 77.69824219 C141.2900618 78.92219696 141.29838531 80.14615173 141.30696106 81.40719604 C141.32682673 84.73994323 141.33768224 88.07244163 141.3427875 91.40522647 C141.3464486 93.49303738 141.35269741 95.58082489 141.35978889 97.66862679 C141.38422174 104.96805994 141.39732308 112.26742259 141.40087891 119.56689453 C141.40451528 126.34660456 141.43443335 133.12586227 141.47628349 139.90543407 C141.51107553 145.7486265 141.52642883 151.5916695 141.52712494 157.43496472 C141.52791436 160.91513551 141.53649783 164.39484382 141.5651226 167.87490654 C141.59636207 171.75890201 141.58720101 175.64225499 141.57470703 179.52636719 C141.59695847 181.23254463 141.59695847 181.23254463 141.61965942 182.97319031 C141.53561678 192.17774475 138.97089337 199.20940346 132.7253418 206.05200195 C125.23018364 212.88694719 117.37554475 213.76498603 107.54931641 213.69458008 C106.33499939 213.70158936 105.12068237 213.70859863 103.86956787 213.71582031 C100.56092481 213.73033941 97.25329167 213.72703166 93.94470668 213.71430397 C90.45950875 213.70409968 86.97435082 213.71359156 83.489151 213.71984863 C77.63103604 213.72711039 71.77312325 213.71758338 65.91503906 213.69848633 C59.18319433 213.67679147 52.45183571 213.68372061 45.72000307 213.70579195 C39.9072637 213.72407388 34.0946689 213.72644039 28.28191 213.71603727 C24.82513187 213.7098627 21.3685803 213.70879539 17.91181755 213.72218323 C-6.96154013 213.78826955 -27.77749988 211.59109757 -47.0246582 194.17700195 C-47.78262695 193.5118457 -48.5405957 192.84668945 -49.3215332 192.16137695 C-62.50817348 179.88416014 -71.5394338 162.2743353 -72.22709656 144.13839722 C-72.34715901 139.21031432 -72.35650231 134.28209583 -72.3605957 129.3527832 C-72.36703697 127.51970825 -72.37376628 125.6866343 -72.38076782 123.8535614 C-72.39269621 120.02165345 -72.39645332 116.18983534 -72.39526367 112.35791016 C-72.39506093 107.48755545 -72.42233684 102.61778715 -72.45680809 97.74757099 C-72.47922912 93.96304262 -72.48309657 90.17865189 -72.48204422 86.39406395 C-72.48437839 84.60060803 -72.49307604 82.80714701 -72.50870895 81.01375771 C-72.67704372 59.7061494 -67.68788005 41.36541294 -53.0246582 25.17700195 C-52.29762695 24.34555664 -51.5705957 23.51411133 -50.8215332 22.6574707 C-37.77729457 8.59820026 -19.21825966 0.06961154 0 0 Z " fill="#943F4B" transform="translate(100.024658203125,27.822998046875)"/>
</svg>
